# xmcd
# 
# Track frame offsets:
#     150
#     102190
#     168468
#     214838
#     274715
# 
# Disc length: 4672
# 
# Revision: 2
# Processed by: cddbd v1.5.2PL0 Copyright (c) Steve Scherf et al.
# Submitted via: fre:ac v1.0.17
# 
DISCID=41123e05
DTITLE=Eliahu Inbal - Gustav Mahler 交響曲 第7番 《夜の歌》
DYEAR=1986
DGENRE=Symphony
TTITLE0=Langsam - Allegro
TTITLE1=Nachtmusik 1
TTITLE2=Scherzo
TTITLE3=Nachtmusik 2
TTITLE4=Rondo Finale
EXTD=YEAR: 1986
EXTT0=
EXTT1=
EXTT2=
EXTT3=
EXTT4=
PLAYORDER=
